<?xml version="1.0" encoding="utf-8"?>
<!-- Generator: Adobe Illustrator 27.5.0, SVG Export Plug-In . SVG Version: 6.00 Build 0)  -->
<svg version="1.1" id="Background" xmlns="http://www.w3.org/2000/svg" xmlns:xlink="http://www.w3.org/1999/xlink" x="0px" y="0px"
	 viewBox="0 0 951 1331" style="enable-background:new 0 0 951 1331;" xml:space="preserve">
<g>
	<path style="fill:none;" d="M24.55,811.836c0.513,1.227,1.025,2.453,1.541,3.679C25.575,814.289,25.062,813.062,24.55,811.836z"/>
	<path style="fill:none;" d="M9.693,775.472c0.657,1.644,1.318,3.287,1.979,4.931C11.011,778.76,10.35,777.116,9.693,775.472z"/>
	<path style="fill:none;" d="M27.972,819.982c0.492,1.164,0.985,2.328,1.479,3.492C28.958,822.31,28.464,821.146,27.972,819.982z"/>
	<path style="fill:none;" d="M21.153,803.664c0.528,1.277,1.056,2.555,1.587,3.832C22.21,806.219,21.681,804.942,21.153,803.664z"/>
	<path style="fill:none;" d="M17.704,795.277c0.569,1.392,1.138,2.785,1.711,4.176C18.842,798.062,18.273,796.669,17.704,795.277z"
		/>
	<path style="fill:none;" d="M12.973,783.643c1.043,2.585,2.091,5.169,3.143,7.753C15.064,788.812,14.016,786.228,12.973,783.643z"
		/>
	<path style="fill:none;" d="M31.415,828.086c0.462,1.082,0.928,2.164,1.392,3.246C32.342,830.25,31.877,829.168,31.415,828.086z"/>
	<path style="fill:none;" d="M51.084,872.614c0.369,0.807,0.737,1.614,1.107,2.42C51.821,874.227,51.453,873.421,51.084,872.614z"/>
	<path style="fill:none;" d="M54.676,880.421c0.366,0.79,0.732,1.579,1.1,2.369C55.408,882,55.042,881.211,54.676,880.421z"/>
	<path style="fill:none;" d="M34.888,836.171c0.386,0.892,0.774,1.783,1.161,2.674C35.663,837.954,35.274,837.063,34.888,836.171z"
		/>
	<path style="fill:none;" d="M44.489,858.022c0.192,0.43,0.383,0.862,0.576,1.292C44.872,858.883,44.682,858.452,44.489,858.022z"/>
	<path style="fill:none;" d="M47.598,864.942c0.339,0.751,0.677,1.503,1.017,2.253C48.276,866.444,47.938,865.693,47.598,864.942z"
		/>
	<path style="fill:none;" d="M288.033,464.621c0,0.001,0.001,0.001,0.001,0.002c8.815,12.252,17.91,24.397,27.264,36.367
		c-9.354-11.969-18.448-24.115-27.264-36.367C288.034,464.622,288.033,464.621,288.033,464.621z"/>
	<path style="fill:none;" d="M433.455,626.38c-2.637-2.246-5.258-4.527-7.872-6.824C428.196,621.852,430.818,624.133,433.455,626.38
		z"/>
	<path style="fill:none;" d="M6.444,767.302c0.607,1.533,1.217,3.066,1.828,4.599C7.661,770.368,7.05,768.835,6.444,767.302z"/>
	<path style="fill:none;" d="M401.569,597.46c-3.407-3.279-6.792-6.597-10.154-9.953
		C394.777,590.863,398.162,594.181,401.569,597.46z"/>
	<path style="fill:none;" d="M460.807,648.393c-3.7-2.805-7.379-5.664-11.037-8.574C453.428,642.73,457.107,645.589,460.807,648.393
		z"/>
	<path style="fill:none;" d="M373.807,569.367c-12.783-13.563-25.207-27.621-37.244-42.041
		C348.599,541.746,361.023,555.804,373.807,569.367z"/>
	<path style="fill:none;" d="M419.945,614.546c-2.605-2.341-5.203-4.697-7.783-7.086
		C414.743,609.849,417.34,612.205,419.945,614.546z"/>
	<path style="fill:none;" d="M330.578,520.085c-2.718-3.318-5.418-6.652-8.095-10.003
		C325.16,513.433,327.859,516.767,330.578,520.085z"/>
	<path style="fill:none;" d="M3.211,759.103c0.592,1.509,1.187,3.018,1.783,4.527C4.398,762.121,3.803,760.612,3.211,759.103z"/>
	<path style="fill:none;" d="M804.856,288.675c-1.053-0.426-2.104-0.86-3.156-1.288C802.752,287.816,803.804,288.25,804.856,288.675
		z"/>
	<path style="fill:none;" d="M820.754,294.985c-4.484-1.748-8.959-3.522-13.427-5.32
		C811.799,291.465,816.275,293.237,820.754,294.985z"/>
	<path style="fill:none;" d="M58.343,888.289c0.321,0.685,0.644,1.368,0.966,2.052C58.987,889.657,58.665,888.973,58.343,888.289z"
		/>
	<path style="fill:none;" d="M238.16,1161.511c0.105,0.106,0.209,0.212,0.314,0.318
		C238.369,1161.723,238.265,1161.617,238.16,1161.511z"/>
	<path style="fill:none;" d="M232.766,1155.974c0.066,0.069,0.133,0.138,0.199,0.207
		C232.898,1156.112,232.832,1156.043,232.766,1155.974z"/>
	<path style="fill:none;" d="M119.265,1004.069c0.104,0.174,0.207,0.347,0.31,0.521
		C119.472,1004.416,119.369,1004.242,119.265,1004.069z"/>
	<path style="fill:none;" d="M123.553,1011.214c0.003,0.005,0.006,0.009,0.009,0.014
		C123.559,1011.223,123.556,1011.219,123.553,1011.214z"/>
	<path style="fill:none;" d="M191.599,1109.123c0.026,0.032,0.052,0.064,0.078,0.096
		C191.65,1109.188,191.625,1109.156,191.599,1109.123z"/>
	<path style="fill:none;" d="M196.589,1115.258c0.006,0.008,0.012,0.015,0.019,0.022
		C196.602,1115.273,196.596,1115.266,196.589,1115.258z"/>
	<path style="fill:none;" d="M153.856,1058.267c0.044,0.064,0.088,0.129,0.133,0.193
		C153.944,1058.396,153.9,1058.331,153.856,1058.267z"/>
	<path style="fill:none;" d="M87.524,947.177c0.201,0.383,0.402,0.766,0.604,1.149C87.926,947.943,87.725,947.56,87.524,947.177z"/>
	<path style="fill:none;" d="M91.515,954.732c0.076,0.143,0.152,0.285,0.229,0.428C91.667,955.017,91.591,954.875,91.515,954.732z"
		/>
	<path style="fill:none;" d="M111.225,990.336c0.006,0.011,0.013,0.022,0.019,0.032
		C111.237,990.357,111.231,990.346,111.225,990.336z"/>
	<path style="fill:none;" d="M115.116,997.036c0.104,0.178,0.209,0.356,0.313,0.534C115.324,997.392,115.22,997.214,115.116,997.036
		z"/>
	<path style="fill:none;" d="M83.629,939.689c0.229,0.443,0.457,0.886,0.687,1.329C84.086,940.575,83.857,940.132,83.629,939.689z"
		/>
	<path style="fill:none;" d="M76.449,925.596c0.054,0.107,0.107,0.215,0.162,0.323C76.557,925.811,76.504,925.703,76.449,925.596z"
		/>
	<path style="fill:none;" d="M79.865,932.348c0.2,0.393,0.399,0.786,0.6,1.179C80.264,933.134,80.065,932.74,79.865,932.348z"/>
	<path style="fill:none;" d="M62.057,896.148c0.208,0.437,0.417,0.872,0.625,1.309C62.474,897.021,62.265,896.585,62.057,896.148z"
		/>
	<polygon style="fill:none;" points="243.783,1167.145 243.772,1167.134 243.783,1167.145 	"/>
	<linearGradient id="SVGID_1_" gradientUnits="userSpaceOnUse" x1="1201.0275" y1="-378.062" x2="651.0136" y2="163.9032">
		<stop  offset="0" style="stop-color:#FBCE53"/>
		<stop  offset="1" style="stop-color:#FCDC86"/>
	</linearGradient>
	<path style="fill:url(#SVGID_1_);" d="M469.978,101.407c72.672,48.956,146.486,96.612,224.495,136.711
		c35.491,18.244,71.247,34.606,107.228,49.27c1.052,0.427,2.102,0.862,3.156,1.288c0.823,0.333,1.647,0.659,2.471,0.99
		c4.468,1.798,8.943,3.572,13.427,5.32c0.598,0.233,1.195,0.47,1.793,0.702c42.17,16.366,85.046,30.683,128.453,42.866V0H340.121
		c8.347,10.067,16.883,19.803,25.778,28.834C394.257,57.628,436.464,78.83,469.978,101.407z"/>
	
		<linearGradient id="SVGID_00000131325798882516621420000005124686270312270257_" gradientUnits="userSpaceOnUse" x1="2773.6418" y1="-2317.2739" x2="3063.0435" y2="-3249.7876" gradientTransform="matrix(0.8458 0.1599 0.0028 0.9719 -1890.5052 2238.1941)">
		<stop  offset="0" style="stop-color:#FCDA7D"/>
		<stop  offset="1" style="stop-color:#FBC328"/>
	</linearGradient>
	<path style="fill:url(#SVGID_00000131325798882516621420000005124686270312270257_);" d="M142.177,238.422
		c47.882,75.862,93.418,153.32,145.856,226.199c0,0.001,0.001,0.001,0.001,0.002c8.815,12.252,17.91,24.397,27.264,36.367
		c2.378,3.043,4.773,6.074,7.185,9.093c2.677,3.351,5.377,6.685,8.095,10.003c1.985,2.423,3.979,4.838,5.985,7.241
		c12.037,14.419,24.461,28.477,37.244,42.041c2.471,2.621,4.95,5.23,7.447,7.814c3.363,3.479,6.751,6.922,10.162,10.327
		c3.362,3.356,6.747,6.673,10.154,9.953c1.779,1.712,3.563,3.414,5.354,5.104c1.74,1.643,3.487,3.275,5.239,4.896
		c2.581,2.388,5.178,4.745,7.783,7.086c1.873,1.683,3.752,3.352,5.637,5.009c2.614,2.297,5.235,4.578,7.872,6.824
		c5.39,4.591,10.829,9.073,16.315,13.44c3.658,2.911,7.337,5.77,11.037,8.574c53.647,40.669,111.661,69.93,172.686,80.208
		c111.386,18.76,213.907-28.065,317.507-58.083V338.553c-43.075-12.144-85.915-26.339-128.453-42.866
		c-0.598-0.232-1.195-0.469-1.793-0.702c-4.479-1.748-8.955-3.52-13.427-5.32c-0.515-0.207-1.032-0.405-1.546-0.613
		c-0.309-0.125-0.617-0.253-0.925-0.377c-1.052-0.426-2.104-0.859-3.156-1.288C643.955,223.322,491.216,140.43,347.14,49.349
		c-9.063-5.729-18.092-11.491-27.085-17.282C304.335,21.944,288.566,11.55,273.853,0H0v12.265c2.344,2.694,4.642,5.417,6.893,8.156
		C60.477,85.633,97.079,166.972,142.177,238.422z"/>
	
		<linearGradient id="SVGID_00000040553240816272722120000017852680933540729234_" gradientUnits="userSpaceOnUse" x1="1135.1387" y1="-444.9269" x2="585.1244" y2="97.0388">
		<stop  offset="0" style="stop-color:#FBCE53"/>
		<stop  offset="1" style="stop-color:#FCDC86"/>
	</linearGradient>
	<path style="fill:url(#SVGID_00000040553240816272722120000017852680933540729234_);" d="M347.14,49.349
		C491.216,140.43,643.955,223.322,801.7,287.388c-35.98-14.664-71.736-31.026-107.228-49.27
		c-78.009-40.099-151.823-87.754-224.495-136.711c-33.514-22.577-75.721-43.779-104.079-72.573
		C357.004,19.803,348.468,10.067,340.121,0h-66.268c14.714,11.55,30.482,21.944,46.202,32.067
		C329.048,37.858,338.077,43.62,347.14,49.349z"/>
	
		<linearGradient id="SVGID_00000086681132296426019090000013888489482867261093_" gradientUnits="userSpaceOnUse" x1="2782.1887" y1="-2314.6606" x2="3071.5415" y2="-3247.0178" gradientTransform="matrix(0.8458 0.1599 0.0028 0.9719 -1890.5052 2238.1941)">
		<stop  offset="0" style="stop-color:#FCDA7D"/>
		<stop  offset="1" style="stop-color:#FBC328"/>
	</linearGradient>
	<path style="fill:url(#SVGID_00000086681132296426019090000013888489482867261093_);" d="M347.14,49.349
		C491.216,140.43,643.955,223.322,801.7,287.388c-35.98-14.664-71.736-31.026-107.228-49.27
		c-78.009-40.099-151.823-87.754-224.495-136.711c-33.514-22.577-75.721-43.779-104.079-72.573
		C357.004,19.803,348.468,10.067,340.121,0h-66.268c14.714,11.55,30.482,21.944,46.202,32.067
		C329.048,37.858,338.077,43.62,347.14,49.349z"/>
	
		<linearGradient id="SVGID_00000114057826169091825690000010335509453405095052_" gradientUnits="userSpaceOnUse" x1="1340.049" y1="-236.9734" x2="790.0355" y2="304.9916">
		<stop  offset="0" style="stop-color:#FBCE53"/>
		<stop  offset="1" style="stop-color:#FCDC86"/>
	</linearGradient>
	<path style="fill:url(#SVGID_00000114057826169091825690000010335509453405095052_);" d="M805.781,289.053
		c0.514,0.208,1.031,0.405,1.546,0.613c-0.824-0.331-1.648-0.657-2.471-0.99C805.165,288.8,805.472,288.928,805.781,289.053z"/>
	
		<linearGradient id="SVGID_00000091730367446230027570000016998551980889517479_" gradientUnits="userSpaceOnUse" x1="3098.8352" y1="-2216.2695" x2="3388.3008" y2="-3148.989" gradientTransform="matrix(0.8458 0.1599 0.0028 0.9719 -1890.5052 2238.1941)">
		<stop  offset="0" style="stop-color:#FCDA7D"/>
		<stop  offset="1" style="stop-color:#FBC328"/>
	</linearGradient>
	<path style="fill:url(#SVGID_00000091730367446230027570000016998551980889517479_);" d="M805.781,289.053
		c0.514,0.208,1.031,0.405,1.546,0.613c-0.824-0.331-1.648-0.657-2.471-0.99C805.165,288.8,805.472,288.928,805.781,289.053z"/>
	
		<linearGradient id="SVGID_00000057860348499905847980000016637210693391450036_" gradientUnits="userSpaceOnUse" x1="1350.8195" y1="-226.0891" x2="800.782" y2="315.8994">
		<stop  offset="0" style="stop-color:#FBCE53"/>
		<stop  offset="1" style="stop-color:#FCDC86"/>
	</linearGradient>
	<path style="fill:url(#SVGID_00000057860348499905847980000016637210693391450036_);" d="M822.547,295.687
		c-0.598-0.232-1.195-0.469-1.793-0.702C821.352,295.218,821.949,295.455,822.547,295.687z"/>
	
		<linearGradient id="SVGID_00000020382698598705408730000015077579105327539347_" gradientUnits="userSpaceOnUse" x1="3116.5347" y1="-2210.7422" x2="3406.0288" y2="-3143.554" gradientTransform="matrix(0.8458 0.1599 0.0028 0.9719 -1890.5052 2238.1941)">
		<stop  offset="0" style="stop-color:#FCDA7D"/>
		<stop  offset="1" style="stop-color:#FBC328"/>
	</linearGradient>
	<path style="fill:url(#SVGID_00000020382698598705408730000015077579105327539347_);" d="M822.547,295.687
		c-0.598-0.232-1.195-0.469-1.793-0.702C821.352,295.218,821.949,295.455,822.547,295.687z"/>
	
		<linearGradient id="SVGID_00000076574773653122830020000014284686232886678185_" gradientUnits="userSpaceOnUse" x1="1026.8043" y1="616.1869" x2="-262.4156" y2="1333.6661">
		<stop  offset="0" style="stop-color:#FFC014"/>
		<stop  offset="1" style="stop-color:#FBCD4F"/>
	</linearGradient>
	<path style="fill:url(#SVGID_00000076574773653122830020000014284686232886678185_);" d="M294.098,1211.657
		c-17.595-13.816-34.337-28.707-50.315-44.512l0,0c-0.004-0.004-0.007-0.008-0.011-0.011c-1.776-1.757-3.541-3.526-5.297-5.305
		c-0.105-0.106-0.209-0.212-0.314-0.318c-1.741-1.766-3.473-3.542-5.195-5.33c-0.066-0.069-0.133-0.138-0.199-0.207
		c-12.528-13.014-24.569-26.601-36.158-40.693c-0.006-0.007-0.012-0.015-0.019-0.022c-1.647-2.003-3.285-4.016-4.913-6.039
		c-0.026-0.032-0.052-0.064-0.078-0.096c-13.102-16.279-25.622-33.201-37.61-50.663c-0.045-0.064-0.088-0.129-0.133-0.193
		c-10.493-15.292-20.58-30.994-30.294-47.039c-0.003-0.005-0.006-0.009-0.009-0.014c-1.333-2.202-2.658-4.41-3.978-6.625
		c-0.103-0.174-0.207-0.347-0.31-0.521c-1.286-2.16-2.564-4.326-3.837-6.499c-0.104-0.178-0.208-0.356-0.313-0.534
		c-1.297-2.217-2.588-4.439-3.872-6.668c-0.006-0.011-0.013-0.022-0.019-0.032c-6.668-11.578-13.158-23.311-19.481-35.176
		c-0.076-0.143-0.152-0.285-0.229-0.428c-1.135-2.131-2.263-4.267-3.387-6.406c-0.202-0.383-0.403-0.766-0.604-1.149
		c-1.075-2.049-2.144-4.103-3.209-6.159c-0.229-0.443-0.458-0.886-0.687-1.329c-1.059-2.051-2.114-4.104-3.164-6.162
		c-0.201-0.393-0.4-0.786-0.6-1.179c-1.089-2.14-2.175-4.282-3.254-6.429c-0.054-0.107-0.107-0.215-0.162-0.323
		c-4.68-9.318-9.267-18.701-13.767-28.138c-0.208-0.437-0.417-0.872-0.625-1.309c-0.92-1.933-1.834-3.87-2.747-5.807
		c-0.322-0.684-0.645-1.368-0.966-2.052c-0.859-1.831-1.715-3.664-2.568-5.499c-0.367-0.789-0.733-1.579-1.1-2.369
		c-0.831-1.794-1.659-3.59-2.484-5.387c-0.37-0.806-0.738-1.613-1.107-2.42c-0.825-1.805-1.649-3.611-2.469-5.419
		c-0.34-0.751-0.678-1.502-1.017-2.253c-0.847-1.875-1.693-3.75-2.533-5.628c-0.193-0.43-0.383-0.862-0.576-1.292
		c-2.848-6.377-5.66-12.77-8.44-19.176c-0.387-0.892-0.775-1.782-1.161-2.674c-0.697-1.612-1.389-3.226-2.082-4.84
		c-0.464-1.082-0.93-2.163-1.392-3.246c-0.656-1.537-1.31-3.074-1.963-4.612c-0.494-1.164-0.987-2.327-1.479-3.492
		c-0.629-1.489-1.256-2.978-1.882-4.467c-0.515-1.226-1.028-2.452-1.541-3.679c-0.604-1.446-1.208-2.893-1.81-4.34
		c-0.53-1.277-1.058-2.555-1.587-3.832c-0.58-1.404-1.162-2.807-1.739-4.211c-0.572-1.392-1.141-2.784-1.711-4.176
		c-0.529-1.294-1.06-2.587-1.588-3.881c-1.052-2.584-2.1-5.168-3.143-7.753c-0.436-1.08-0.867-2.16-1.301-3.241
		c-0.661-1.643-1.322-3.287-1.979-4.931c-0.476-1.19-0.948-2.381-1.422-3.571c-0.61-1.533-1.221-3.066-1.828-4.599
		c-0.485-1.224-0.968-2.448-1.45-3.672c-0.596-1.509-1.191-3.018-1.783-4.527c-0.473-1.205-0.945-2.41-1.416-3.615
		c-0.6-1.533-1.197-3.065-1.794-4.597V1331h527.135c-28.588-16.43-59.605-25.319-93.323-39.051
		C383.907,1271.624,336.515,1244.965,294.098,1211.657z"/>
	
		<linearGradient id="SVGID_00000127016125816987322920000000423276634797410222_" gradientUnits="userSpaceOnUse" x1="3328.6296" y1="-3027.9385" x2="2612.2112" y2="-1680.6421" gradientTransform="matrix(0.8458 0.1599 0.0028 0.9719 -1890.5052 2238.1941)">
		<stop  offset="0" style="stop-color:#FAC226"/>
		<stop  offset="1" style="stop-color:#FBD671"/>
	</linearGradient>
	<path style="fill:url(#SVGID_00000127016125816987322920000000423276634797410222_);" d="M951,670.518
		c-103.601,30.019-206.121,76.843-317.507,58.083c-61.025-10.278-119.039-39.54-172.686-80.208c-3.7-2.805-7.379-5.664-11.037-8.574
		c-5.487-4.366-10.925-8.849-16.315-13.44c-2.637-2.246-5.258-4.527-7.872-6.824c-1.885-1.657-3.764-3.327-5.637-5.009
		c-2.605-2.341-5.203-4.697-7.783-7.086c-1.752-1.621-3.499-3.253-5.239-4.896c-1.791-1.69-3.575-3.392-5.354-5.104
		c-3.407-3.279-6.792-6.597-10.154-9.953c-3.411-3.405-6.798-6.848-10.162-10.327c-2.497-2.583-4.977-5.192-7.447-7.814
		c-12.783-13.563-25.207-27.621-37.244-42.041c-2.006-2.403-4-4.819-5.985-7.241c-2.718-3.318-5.418-6.652-8.095-10.003
		c-2.412-3.019-4.807-6.05-7.185-9.093c-9.354-11.969-18.448-24.115-27.264-36.367c0-0.001-0.001-0.001-0.001-0.002
		c-27.698-38.494-55.45-76.967-81.971-116.287c-21.429-31.77-34.786-66.99-57.333-97.387
		c-34.222-46.137-65.088-96.589-106.447-136.279C28.16,101.117,13.91,87.624,0,73.801V750.89c0.597,1.533,1.194,3.065,1.794,4.598
		c0.471,1.205,0.943,2.41,1.416,3.615c0.592,1.509,1.187,3.018,1.783,4.527c0.482,1.224,0.965,2.448,1.45,3.672
		c0.607,1.533,1.217,3.066,1.828,4.599c0.474,1.19,0.946,2.381,1.422,3.571c0.657,1.644,1.318,3.287,1.979,4.931
		c0.434,1.08,0.866,2.16,1.301,3.241c1.043,2.585,2.091,5.169,3.143,7.753c0.527,1.294,1.059,2.587,1.588,3.881
		c0.569,1.392,1.138,2.785,1.711,4.176c0.578,1.404,1.159,2.807,1.739,4.211c0.528,1.277,1.056,2.555,1.587,3.832
		c0.601,1.447,1.205,2.893,1.81,4.34c0.512,1.227,1.025,2.453,1.541,3.679c0.625,1.49,1.253,2.979,1.882,4.467
		c0.492,1.164,0.985,2.328,1.479,3.492c0.653,1.538,1.307,3.076,1.963,4.612c0.462,1.082,0.928,2.164,1.392,3.246
		c0.692,1.614,1.385,3.227,2.082,4.84c0.386,0.892,0.774,1.783,1.161,2.674c2.78,6.406,5.592,12.8,8.44,19.176
		c0.192,0.43,0.383,0.862,0.576,1.292c0.84,1.878,1.687,3.753,2.533,5.628c0.339,0.751,0.677,1.503,1.017,2.253
		c0.819,1.808,1.644,3.614,2.469,5.419c0.369,0.807,0.737,1.614,1.107,2.42c0.825,1.797,1.654,3.593,2.484,5.387
		c0.366,0.79,0.732,1.579,1.1,2.369c0.853,1.835,1.708,3.668,2.568,5.499c0.321,0.685,0.644,1.368,0.966,2.052
		c0.913,1.938,1.827,3.874,2.747,5.807c0.208,0.437,0.417,0.872,0.625,1.309c4.5,9.437,9.087,18.82,13.767,28.138
		c0.054,0.107,0.107,0.215,0.162,0.323c1.079,2.147,2.165,4.289,3.254,6.429c0.2,0.393,0.399,0.786,0.6,1.179
		c1.049,2.057,2.104,4.111,3.164,6.162c0.229,0.443,0.457,0.886,0.687,1.329c1.064,2.057,2.134,4.11,3.209,6.159
		c0.201,0.383,0.402,0.766,0.604,1.149c1.124,2.139,2.252,4.275,3.387,6.406c0.076,0.143,0.152,0.285,0.229,0.428
		c6.324,11.864,12.813,23.598,19.481,35.176c0.006,0.011,0.013,0.022,0.019,0.032c1.284,2.229,2.575,4.451,3.872,6.668
		c0.104,0.178,0.209,0.356,0.313,0.534c1.272,2.172,2.551,4.338,3.837,6.499c0.104,0.174,0.207,0.347,0.31,0.521
		c1.319,2.214,2.645,4.423,3.978,6.625c0.003,0.005,0.006,0.009,0.009,0.014c9.715,16.044,19.802,31.748,30.294,47.039
		c0.044,0.064,0.088,0.129,0.133,0.193c11.988,17.461,24.507,34.385,37.61,50.663c0.026,0.032,0.052,0.064,0.078,0.096
		c1.628,2.023,3.266,4.036,4.913,6.039c0.006,0.008,0.012,0.015,0.019,0.022c11.589,14.092,23.63,27.679,36.158,40.693
		c0.066,0.069,0.133,0.138,0.199,0.207c1.722,1.788,3.454,3.564,5.195,5.33c0.105,0.106,0.209,0.212,0.314,0.318
		c1.756,1.779,3.521,3.548,5.297,5.305c0.004,0.004,0.008,0.008,0.012,0.011c59.066,32.478,118.13,64.956,177.194,97.433
		c43.246,23.779,91.372,40.89,133.981,66.422H951V670.518z"/>
	
		<linearGradient id="SVGID_00000054239580976389969760000010593863787972544434_" gradientUnits="userSpaceOnUse" x1="2662.3708" y1="-2351.7861" x2="2951.7524" y2="-3284.2356" gradientTransform="matrix(0.8458 0.1599 0.0028 0.9719 -1890.5052 2238.1941)">
		<stop  offset="0" style="stop-color:#FCDA7D"/>
		<stop  offset="1" style="stop-color:#FBC328"/>
	</linearGradient>
	<path style="fill:url(#SVGID_00000054239580976389969760000010593863787972544434_);" d="M322.483,510.082
		c-2.412-3.019-4.807-6.05-7.185-9.093C317.676,504.032,320.071,507.064,322.483,510.082z"/>
	
		<linearGradient id="SVGID_00000176739172350203829120000005219909714500691101_" gradientUnits="userSpaceOnUse" x1="3113.2922" y1="-3142.3054" x2="2396.946" y2="-1795.1448" gradientTransform="matrix(0.8458 0.1599 0.0028 0.9719 -1890.5052 2238.1941)">
		<stop  offset="0" style="stop-color:#FAC226"/>
		<stop  offset="1" style="stop-color:#FBD671"/>
	</linearGradient>
	<path style="fill:url(#SVGID_00000176739172350203829120000005219909714500691101_);" d="M322.483,510.082
		c-2.412-3.019-4.807-6.05-7.185-9.093C317.676,504.032,320.071,507.064,322.483,510.082z"/>
	
		<linearGradient id="SVGID_00000063629803392427901950000005816356440189756599_" gradientUnits="userSpaceOnUse" x1="2682.6399" y1="-2345.4917" x2="2972.0137" y2="-3277.9158" gradientTransform="matrix(0.8458 0.1599 0.0028 0.9719 -1890.5052 2238.1941)">
		<stop  offset="0" style="stop-color:#FCDA7D"/>
		<stop  offset="1" style="stop-color:#FBC328"/>
	</linearGradient>
	<path style="fill:url(#SVGID_00000063629803392427901950000005816356440189756599_);" d="M336.563,527.327
		c-2.006-2.404-4-4.819-5.985-7.241C332.563,522.508,334.556,524.923,336.563,527.327z"/>
	
		<linearGradient id="SVGID_00000003105796223871586690000002988921192408074429_" gradientUnits="userSpaceOnUse" x1="3133.3232" y1="-3131.5852" x2="2417.0181" y2="-1784.5022" gradientTransform="matrix(0.8458 0.1599 0.0028 0.9719 -1890.5052 2238.1941)">
		<stop  offset="0" style="stop-color:#FAC226"/>
		<stop  offset="1" style="stop-color:#FBD671"/>
	</linearGradient>
	<path style="fill:url(#SVGID_00000003105796223871586690000002988921192408074429_);" d="M336.563,527.327
		c-2.006-2.404-4-4.819-5.985-7.241C332.563,522.508,334.556,524.923,336.563,527.327z"/>
	
		<linearGradient id="SVGID_00000150080834201840146210000015578486934427841197_" gradientUnits="userSpaceOnUse" x1="2406.3042" y1="-2431.2551" x2="2695.6863" y2="-3363.7061" gradientTransform="matrix(0.8458 0.1599 0.0028 0.9719 -1890.5052 2238.1941)">
		<stop  offset="0" style="stop-color:#FCDA7D"/>
		<stop  offset="1" style="stop-color:#FBC328"/>
	</linearGradient>
	<path style="fill:url(#SVGID_00000150080834201840146210000015578486934427841197_);" d="M148.729,250.946
		c22.547,30.398,35.904,65.617,57.333,97.387c26.521,39.32,54.273,77.793,81.971,116.287
		c-52.438-72.878-97.974-150.336-145.856-226.199C97.079,166.972,60.477,85.633,6.893,20.421C4.642,17.682,2.344,14.959,0,12.265
		v61.536c13.91,13.823,28.16,27.316,42.281,40.867C83.641,154.357,114.507,204.809,148.729,250.946z"/>
	
		<linearGradient id="SVGID_00000030460759765596130420000011077484188196549007_" gradientUnits="userSpaceOnUse" x1="2852.864" y1="-3280.7988" x2="2136.5103" y2="-1933.6243" gradientTransform="matrix(0.8458 0.1599 0.0028 0.9719 -1890.5052 2238.1941)">
		<stop  offset="0" style="stop-color:#FAC226"/>
		<stop  offset="1" style="stop-color:#FBD671"/>
	</linearGradient>
	<path style="fill:url(#SVGID_00000030460759765596130420000011077484188196549007_);" d="M148.729,250.946
		c22.547,30.398,35.904,65.617,57.333,97.387c26.521,39.32,54.273,77.793,81.971,116.287
		c-52.438-72.878-97.974-150.336-145.856-226.199C97.079,166.972,60.477,85.633,6.893,20.421C4.642,17.682,2.344,14.959,0,12.265
		v61.536c13.91,13.823,28.16,27.316,42.281,40.867C83.641,154.357,114.507,204.809,148.729,250.946z"/>
	
		<linearGradient id="SVGID_00000054229827485481987090000011919156356157782975_" gradientUnits="userSpaceOnUse" x1="2753.5735" y1="-2323.4763" x2="3042.9456" y2="-3255.8955" gradientTransform="matrix(0.8458 0.1599 0.0028 0.9719 -1890.5052 2238.1941)">
		<stop  offset="0" style="stop-color:#FCDA7D"/>
		<stop  offset="1" style="stop-color:#FBC328"/>
	</linearGradient>
	<path style="fill:url(#SVGID_00000054229827485481987090000011919156356157782975_);" d="M391.416,587.508
		c-3.411-3.405-6.798-6.848-10.162-10.327C384.617,580.659,388.005,584.102,391.416,587.508z"/>
	
		<linearGradient id="SVGID_00000036935184608706365540000005454248546651196309_" gradientUnits="userSpaceOnUse" x1="3202.5654" y1="-3094.697" x2="2486.3013" y2="-1747.6906" gradientTransform="matrix(0.8458 0.1599 0.0028 0.9719 -1890.5052 2238.1941)">
		<stop  offset="0" style="stop-color:#FAC226"/>
		<stop  offset="1" style="stop-color:#FBD671"/>
	</linearGradient>
	<path style="fill:url(#SVGID_00000036935184608706365540000005454248546651196309_);" d="M391.416,587.508
		c-3.411-3.405-6.798-6.848-10.162-10.327C384.617,580.659,388.005,584.102,391.416,587.508z"/>
	
		<linearGradient id="SVGID_00000016073614449100196730000013511899280777588389_" gradientUnits="userSpaceOnUse" x1="2800.8796" y1="-2308.79" x2="3090.2439" y2="-3241.1841" gradientTransform="matrix(0.8458 0.1599 0.0028 0.9719 -1890.5052 2238.1941)">
		<stop  offset="0" style="stop-color:#FCDA7D"/>
		<stop  offset="1" style="stop-color:#FBC328"/>
	</linearGradient>
	<path style="fill:url(#SVGID_00000016073614449100196730000013511899280777588389_);" d="M425.583,619.555
		c-1.885-1.657-3.764-3.327-5.637-5.009C421.819,616.229,423.697,617.898,425.583,619.555z"/>
	
		<linearGradient id="SVGID_00000133520289514024763790000007208115669170413721_" gradientUnits="userSpaceOnUse" x1="3247.8054" y1="-3070.3154" x2="2531.7327" y2="-1723.6691" gradientTransform="matrix(0.8458 0.1599 0.0028 0.9719 -1890.5052 2238.1941)">
		<stop  offset="0" style="stop-color:#FAC226"/>
		<stop  offset="1" style="stop-color:#FBD671"/>
	</linearGradient>
	<path style="fill:url(#SVGID_00000133520289514024763790000007208115669170413721_);" d="M425.583,619.555
		c-1.885-1.657-3.764-3.327-5.637-5.009C421.819,616.229,423.697,617.898,425.583,619.555z"/>
	
		<linearGradient id="SVGID_00000048493732583814936180000017760294923453959306_" gradientUnits="userSpaceOnUse" x1="2777.0054" y1="-2316.1958" x2="3066.3647" y2="-3248.574" gradientTransform="matrix(0.8458 0.1599 0.0028 0.9719 -1890.5052 2238.1941)">
		<stop  offset="0" style="stop-color:#FCDA7D"/>
		<stop  offset="1" style="stop-color:#FBC328"/>
	</linearGradient>
	<path style="fill:url(#SVGID_00000048493732583814936180000017760294923453959306_);" d="M406.923,602.564
		c-1.791-1.69-3.575-3.392-5.354-5.104C403.348,599.172,405.132,600.874,406.923,602.564z"/>
	
		<linearGradient id="SVGID_00000013875712957800349530000003041036411392065978_" gradientUnits="userSpaceOnUse" x1="3225.0483" y1="-3082.5413" x2="2508.9021" y2="-1735.7571" gradientTransform="matrix(0.8458 0.1599 0.0028 0.9719 -1890.5052 2238.1941)">
		<stop  offset="0" style="stop-color:#FAC226"/>
		<stop  offset="1" style="stop-color:#FBD671"/>
	</linearGradient>
	<path style="fill:url(#SVGID_00000013875712957800349530000003041036411392065978_);" d="M406.923,602.564
		c-1.791-1.69-3.575-3.392-5.354-5.104C403.348,599.172,405.132,600.874,406.923,602.564z"/>
	
		<linearGradient id="SVGID_00000006701588029511221830000006343984739239339966_" gradientUnits="userSpaceOnUse" x1="2741.9424" y1="-2327.083" x2="3031.3098" y2="-3259.4875" gradientTransform="matrix(0.8458 0.1599 0.0028 0.9719 -1890.5052 2238.1941)">
		<stop  offset="0" style="stop-color:#FCDA7D"/>
		<stop  offset="1" style="stop-color:#FBC328"/>
	</linearGradient>
	<path style="fill:url(#SVGID_00000006701588029511221830000006343984739239339966_);" d="M381.254,577.181
		c-2.497-2.583-4.977-5.192-7.447-7.814C376.277,571.989,378.757,574.598,381.254,577.181z"/>
	
		<linearGradient id="SVGID_00000172422614140080391380000008146058300628763832_" gradientUnits="userSpaceOnUse" x1="3191.2979" y1="-3100.6599" x2="2475.0505" y2="-1753.6855" gradientTransform="matrix(0.8458 0.1599 0.0028 0.9719 -1890.5052 2238.1941)">
		<stop  offset="0" style="stop-color:#FAC226"/>
		<stop  offset="1" style="stop-color:#FBD671"/>
	</linearGradient>
	<path style="fill:url(#SVGID_00000172422614140080391380000008146058300628763832_);" d="M381.254,577.181
		c-2.497-2.583-4.977-5.192-7.447-7.814C376.277,571.989,378.757,574.598,381.254,577.181z"/>
	
		<linearGradient id="SVGID_00000055685884492361983590000001250168872733992576_" gradientUnits="userSpaceOnUse" x1="947.3154" y1="474.3149" x2="-141.6523" y2="1080.3494">
		<stop  offset="0" style="stop-color:#FFC014"/>
		<stop  offset="1" style="stop-color:#FBCD4F"/>
	</linearGradient>
	<path style="fill:url(#SVGID_00000055685884492361983590000001250168872733992576_);" d="M88.128,948.326
		c1.124,2.139,2.252,4.275,3.387,6.406C90.38,952.601,89.252,950.465,88.128,948.326z"/>
	
		<linearGradient id="SVGID_00000053530081771395813750000002316931986020054678_" gradientUnits="userSpaceOnUse" x1="3109.6526" y1="-3144.2009" x2="2393.3" y2="-1797.0284" gradientTransform="matrix(0.8458 0.1599 0.0028 0.9719 -1890.5052 2238.1941)">
		<stop  offset="0" style="stop-color:#FAC226"/>
		<stop  offset="1" style="stop-color:#FBD671"/>
	</linearGradient>
	<path style="fill:url(#SVGID_00000053530081771395813750000002316931986020054678_);" d="M88.128,948.326
		c1.124,2.139,2.252,4.275,3.387,6.406C90.38,952.601,89.252,950.465,88.128,948.326z"/>
	
		<linearGradient id="SVGID_00000183237509430076555410000015439907973887052460_" gradientUnits="userSpaceOnUse" x1="975.2922" y1="523.3539" x2="-314.1045" y2="1240.9315">
		<stop  offset="0" style="stop-color:#FFC014"/>
		<stop  offset="1" style="stop-color:#FBCD4F"/>
	</linearGradient>
	<path style="fill:url(#SVGID_00000183237509430076555410000015439907973887052460_);" d="M115.428,997.57
		c1.272,2.172,2.551,4.338,3.837,6.499C117.98,1001.908,116.701,999.742,115.428,997.57z"/>
	
		<linearGradient id="SVGID_00000172418533746832358360000000672033716059938709_" gradientUnits="userSpaceOnUse" x1="3153.7117" y1="-3120.7537" x2="2437.3665" y2="-1773.5947" gradientTransform="matrix(0.8458 0.1599 0.0028 0.9719 -1890.5052 2238.1941)">
		<stop  offset="0" style="stop-color:#FAC226"/>
		<stop  offset="1" style="stop-color:#FBD671"/>
	</linearGradient>
	<path style="fill:url(#SVGID_00000172418533746832358360000000672033716059938709_);" d="M115.428,997.57
		c1.272,2.172,2.551,4.338,3.837,6.499C117.98,1001.908,116.701,999.742,115.428,997.57z"/>
	
		<linearGradient id="SVGID_00000021084876336177639810000012306601797671577019_" gradientUnits="userSpaceOnUse" x1="970.6987" y1="516.474" x2="-13.4001" y2="1064.1466">
		<stop  offset="0" style="stop-color:#FFC014"/>
		<stop  offset="1" style="stop-color:#FBCD4F"/>
	</linearGradient>
	<path style="fill:url(#SVGID_00000021084876336177639810000012306601797671577019_);" d="M111.244,990.368
		c1.284,2.229,2.575,4.451,3.872,6.668C113.819,994.819,112.527,992.597,111.244,990.368z"/>
	
		<linearGradient id="SVGID_00000009591703090916174490000013338061233139506594_" gradientUnits="userSpaceOnUse" x1="3147.2222" y1="-3124.29" x2="2430.844" y2="-1777.0695" gradientTransform="matrix(0.8458 0.1599 0.0028 0.9719 -1890.5052 2238.1941)">
		<stop  offset="0" style="stop-color:#FAC226"/>
		<stop  offset="1" style="stop-color:#FBD671"/>
	</linearGradient>
	<path style="fill:url(#SVGID_00000009591703090916174490000013338061233139506594_);" d="M111.244,990.368
		c1.284,2.229,2.575,4.451,3.872,6.668C113.819,994.819,112.527,992.597,111.244,990.368z"/>
	
		<linearGradient id="SVGID_00000080911692825295779830000010252132031554921354_" gradientUnits="userSpaceOnUse" x1="959.5038" y1="495.2409" x2="-329.7288" y2="1212.7272">
		<stop  offset="0" style="stop-color:#FFC014"/>
		<stop  offset="1" style="stop-color:#FBCD4F"/>
	</linearGradient>
	<path style="fill:url(#SVGID_00000080911692825295779830000010252132031554921354_);" d="M91.743,955.16
		c6.324,11.865,12.813,23.598,19.481,35.176C104.556,978.758,98.067,967.024,91.743,955.16z"/>
	
		<linearGradient id="SVGID_00000072252491986121708610000012213822747514781829_" gradientUnits="userSpaceOnUse" x1="3128.48" y1="-3134.2241" x2="2412.1145" y2="-1787.0272" gradientTransform="matrix(0.8458 0.1599 0.0028 0.9719 -1890.5052 2238.1941)">
		<stop  offset="0" style="stop-color:#FAC226"/>
		<stop  offset="1" style="stop-color:#FBD671"/>
	</linearGradient>
	<path style="fill:url(#SVGID_00000072252491986121708610000012213822747514781829_);" d="M91.743,955.16
		c6.324,11.865,12.813,23.598,19.481,35.176C104.556,978.758,98.067,967.024,91.743,955.16z"/>
	
		<linearGradient id="SVGID_00000157289386812659363850000015420821333479149470_" gradientUnits="userSpaceOnUse" x1="925.9224" y1="434.9452" x2="-363.2809" y2="1152.4152">
		<stop  offset="0" style="stop-color:#FFC014"/>
		<stop  offset="1" style="stop-color:#FBCD4F"/>
	</linearGradient>
	<path style="fill:url(#SVGID_00000157289386812659363850000015420821333479149470_);" d="M62.682,897.457
		c4.5,9.437,9.087,18.82,13.767,28.138C71.769,916.278,67.183,906.894,62.682,897.457z"/>
	
		<linearGradient id="SVGID_00000025428976952495872470000006216494488449736861_" gradientUnits="userSpaceOnUse" x1="3075.6592" y1="-3162.3176" x2="2359.291" y2="-1815.1162" gradientTransform="matrix(0.8458 0.1599 0.0028 0.9719 -1890.5052 2238.1941)">
		<stop  offset="0" style="stop-color:#FAC226"/>
		<stop  offset="1" style="stop-color:#FBD671"/>
	</linearGradient>
	<path style="fill:url(#SVGID_00000025428976952495872470000006216494488449736861_);" d="M62.682,897.457
		c4.5,9.437,9.087,18.82,13.767,28.138C71.769,916.278,67.183,906.894,62.682,897.457z"/>
	
		<linearGradient id="SVGID_00000043438546986622399220000006071912560335264942_" gradientUnits="userSpaceOnUse" x1="939.522" y1="459.4039" x2="-349.6674" y2="1176.8661">
		<stop  offset="0" style="stop-color:#FFC014"/>
		<stop  offset="1" style="stop-color:#FBCD4F"/>
	</linearGradient>
	<path style="fill:url(#SVGID_00000043438546986622399220000006071912560335264942_);" d="M80.465,933.527
		c1.049,2.058,2.104,4.111,3.164,6.162C82.569,937.638,81.514,935.584,80.465,933.527z"/>
	
		<linearGradient id="SVGID_00000119088445542841320600000003674371066047627166_" gradientUnits="userSpaceOnUse" x1="3096.801" y1="-3151.0806" x2="2380.4304" y2="-1803.8744" gradientTransform="matrix(0.8458 0.1599 0.0028 0.9719 -1890.5052 2238.1941)">
		<stop  offset="0" style="stop-color:#FAC226"/>
		<stop  offset="1" style="stop-color:#FBD671"/>
	</linearGradient>
	<path style="fill:url(#SVGID_00000119088445542841320600000003674371066047627166_);" d="M80.465,933.527
		c1.049,2.058,2.104,4.111,3.164,6.162C82.569,937.638,81.514,935.584,80.465,933.527z"/>
	
		<linearGradient id="SVGID_00000080912735923758489520000012083606688590549932_" gradientUnits="userSpaceOnUse" x1="943.6701" y1="466.7404" x2="-345.5941" y2="1184.2444">
		<stop  offset="0" style="stop-color:#FFC014"/>
		<stop  offset="1" style="stop-color:#FBCD4F"/>
	</linearGradient>
	<path style="fill:url(#SVGID_00000080912735923758489520000012083606688590549932_);" d="M84.315,941.018
		c1.064,2.057,2.134,4.11,3.209,6.159C86.449,945.128,85.38,943.074,84.315,941.018z"/>
	
		<linearGradient id="SVGID_00000114755102403059684960000010588650721592211898_" gradientUnits="userSpaceOnUse" x1="3103.2366" y1="-3147.6584" x2="2386.8662" y2="-1800.4525" gradientTransform="matrix(0.8458 0.1599 0.0028 0.9719 -1890.5052 2238.1941)">
		<stop  offset="0" style="stop-color:#FAC226"/>
		<stop  offset="1" style="stop-color:#FBD671"/>
	</linearGradient>
	<path style="fill:url(#SVGID_00000114755102403059684960000010588650721592211898_);" d="M84.315,941.018
		c1.064,2.057,2.134,4.11,3.209,6.159C86.449,945.128,85.38,943.074,84.315,941.018z"/>
	
		<linearGradient id="SVGID_00000039841611089657333350000009187502076322009005_" gradientUnits="userSpaceOnUse" x1="935.3876" y1="452.1104" x2="-353.7152" y2="1169.5244">
		<stop  offset="0" style="stop-color:#FFC014"/>
		<stop  offset="1" style="stop-color:#FBCD4F"/>
	</linearGradient>
	<path style="fill:url(#SVGID_00000039841611089657333350000009187502076322009005_);" d="M76.611,925.918
		c1.079,2.147,2.165,4.289,3.254,6.429C78.776,930.208,77.69,928.065,76.611,925.918z"/>
	
		<linearGradient id="SVGID_00000165953137089453319220000017853678501621481407_" gradientUnits="userSpaceOnUse" x1="3090.4143" y1="-3154.4487" x2="2374.0549" y2="-1807.2633" gradientTransform="matrix(0.8458 0.1599 0.0028 0.9719 -1890.5052 2238.1941)">
		<stop  offset="0" style="stop-color:#FAC226"/>
		<stop  offset="1" style="stop-color:#FBD671"/>
	</linearGradient>
	<path style="fill:url(#SVGID_00000165953137089453319220000017853678501621481407_);" d="M76.611,925.918
		c1.079,2.147,2.165,4.289,3.254,6.429C78.776,930.208,77.69,928.065,76.611,925.918z"/>
	
		<linearGradient id="SVGID_00000168802920904577387550000002631794783589913733_" gradientUnits="userSpaceOnUse" x1="1074.0073" y1="700.9625" x2="-215.2432" y2="1418.4589">
		<stop  offset="0" style="stop-color:#FFC014"/>
		<stop  offset="1" style="stop-color:#FBCD4F"/>
	</linearGradient>
	<path style="fill:url(#SVGID_00000168802920904577387550000002631794783589913733_);" d="M243.772,1167.134
		c-1.776-1.757-3.541-3.526-5.297-5.305C240.231,1163.608,241.996,1165.377,243.772,1167.134z"/>
	
		<linearGradient id="SVGID_00000019636301985623369910000014395759196428506778_" gradientUnits="userSpaceOnUse" x1="3327.1116" y1="-3028.1421" x2="2610.9172" y2="-1681.2671" gradientTransform="matrix(0.8458 0.1599 0.0028 0.9719 -1890.5052 2238.1941)">
		<stop  offset="0" style="stop-color:#FAC226"/>
		<stop  offset="1" style="stop-color:#FBD671"/>
	</linearGradient>
	<path style="fill:url(#SVGID_00000019636301985623369910000014395759196428506778_);" d="M243.772,1167.134
		c-1.776-1.757-3.541-3.526-5.297-5.305C240.231,1163.608,241.996,1165.377,243.772,1167.134z"/>
	
		<linearGradient id="SVGID_00000132071534819007353840000001050680820220649635_" gradientUnits="userSpaceOnUse" x1="1070.3092" y1="694.291" x2="-218.9588" y2="1411.797">
		<stop  offset="0" style="stop-color:#FFC014"/>
		<stop  offset="1" style="stop-color:#FBCD4F"/>
	</linearGradient>
	<path style="fill:url(#SVGID_00000132071534819007353840000001050680820220649635_);" d="M232.965,1156.181
		c1.723,1.788,3.454,3.564,5.195,5.33C236.419,1159.745,234.687,1157.969,232.965,1156.181z"/>
	
		<linearGradient id="SVGID_00000058562297697875818980000018345775295881710248_" gradientUnits="userSpaceOnUse" x1="3320.0671" y1="-3031.9468" x2="2603.8511" y2="-1685.031" gradientTransform="matrix(0.8458 0.1599 0.0028 0.9719 -1890.5052 2238.1941)">
		<stop  offset="0" style="stop-color:#FAC226"/>
		<stop  offset="1" style="stop-color:#FBD671"/>
	</linearGradient>
	<path style="fill:url(#SVGID_00000058562297697875818980000018345775295881710248_);" d="M232.965,1156.181
		c1.723,1.788,3.454,3.564,5.195,5.33C236.419,1159.745,234.687,1157.969,232.965,1156.181z"/>
	
		<linearGradient id="SVGID_00000023979795496988727130000014152268298573494415_" gradientUnits="userSpaceOnUse" x1="978.9941" y1="530.723" x2="-309.9444" y2="1248.0457">
		<stop  offset="0" style="stop-color:#FFC014"/>
		<stop  offset="1" style="stop-color:#FBCD4F"/>
	</linearGradient>
	<path style="fill:url(#SVGID_00000023979795496988727130000014152268298573494415_);" d="M119.575,1004.589
		c1.319,2.214,2.645,4.423,3.978,6.625C122.22,1009.012,120.895,1006.804,119.575,1004.589z"/>
	
		<linearGradient id="SVGID_00000104688468655161137440000001277744360851373230_" gradientUnits="userSpaceOnUse" x1="3160.2954" y1="-3117.3279" x2="2443.9214" y2="-1770.115" gradientTransform="matrix(0.8458 0.1599 0.0028 0.9719 -1890.5052 2238.1941)">
		<stop  offset="0" style="stop-color:#FAC226"/>
		<stop  offset="1" style="stop-color:#FBD671"/>
	</linearGradient>
	<path style="fill:url(#SVGID_00000104688468655161137440000001277744360851373230_);" d="M119.575,1004.589
		c1.319,2.214,2.645,4.423,3.978,6.625C122.22,1009.012,120.895,1006.804,119.575,1004.589z"/>
	
		<linearGradient id="SVGID_00000124844597471937340980000009970049923126566317_" gradientUnits="userSpaceOnUse" x1="1147.3535" y1="832.8036" x2="-141.8663" y2="1550.2828">
		<stop  offset="0" style="stop-color:#FFC014"/>
		<stop  offset="1" style="stop-color:#FBCD4F"/>
	</linearGradient>
	<path style="fill:url(#SVGID_00000124844597471937340980000009970049923126566317_);" d="M243.783,1167.145
		c15.978,15.805,32.72,30.696,50.315,44.512c42.417,33.308,89.809,59.967,139.714,80.292c33.717,13.732,64.735,22.621,93.323,39.051
		h27.823c-42.609-25.532-90.734-42.643-133.981-66.422C361.914,1232.101,302.849,1199.623,243.783,1167.145z"/>
	
		<linearGradient id="SVGID_00000003795533448503662040000005911686141159653290_" gradientUnits="userSpaceOnUse" x1="3496.4934" y1="-2938.8887" x2="2780" y2="-1591.4515" gradientTransform="matrix(0.8458 0.1599 0.0028 0.9719 -1890.5052 2238.1941)">
		<stop  offset="0" style="stop-color:#FAC226"/>
		<stop  offset="1" style="stop-color:#FBD671"/>
	</linearGradient>
	<path style="fill:url(#SVGID_00000003795533448503662040000005911686141159653290_);" d="M243.783,1167.145
		c15.978,15.805,32.72,30.696,50.315,44.512c42.417,33.308,89.809,59.967,139.714,80.292c33.717,13.732,64.735,22.621,93.323,39.051
		h27.823c-42.609-25.532-90.734-42.643-133.981-66.422C361.914,1232.101,302.849,1199.623,243.783,1167.145z"/>
	
		<linearGradient id="SVGID_00000013177642367220049140000001564969695432951470_" gradientUnits="userSpaceOnUse" x1="1055.4733" y1="667.7111" x2="-233.7439" y2="1385.1888">
		<stop  offset="0" style="stop-color:#FFC014"/>
		<stop  offset="1" style="stop-color:#FBCD4F"/>
	</linearGradient>
	<path style="fill:url(#SVGID_00000013177642367220049140000001564969695432951470_);" d="M196.608,1115.281
		c11.589,14.092,23.63,27.679,36.158,40.693C220.238,1142.96,208.197,1129.372,196.608,1115.281z"/>
	
		<linearGradient id="SVGID_00000076570267310060194340000014784285959330772888_" gradientUnits="userSpaceOnUse" x1="3292.7456" y1="-3046.699" x2="2576.4463" y2="-1699.6265" gradientTransform="matrix(0.8458 0.1599 0.0028 0.9719 -1890.5052 2238.1941)">
		<stop  offset="0" style="stop-color:#FAC226"/>
		<stop  offset="1" style="stop-color:#FBD671"/>
	</linearGradient>
	<path style="fill:url(#SVGID_00000076570267310060194340000014784285959330772888_);" d="M196.608,1115.281
		c11.589,14.092,23.63,27.679,36.158,40.693C220.238,1142.96,208.197,1129.372,196.608,1115.281z"/>
	
		<linearGradient id="SVGID_00000109743682125467486090000013293447993879772045_" gradientUnits="userSpaceOnUse" x1="994.6593" y1="558.3922" x2="-294.5853" y2="1275.8851">
		<stop  offset="0" style="stop-color:#FFC014"/>
		<stop  offset="1" style="stop-color:#FBCD4F"/>
	</linearGradient>
	<path style="fill:url(#SVGID_00000109743682125467486090000013293447993879772045_);" d="M123.562,1011.228
		c9.715,16.045,19.802,31.747,30.294,47.039C143.363,1042.976,133.277,1027.272,123.562,1011.228z"/>
	
		<linearGradient id="SVGID_00000132056189851018251920000012893326053659575712_" gradientUnits="userSpaceOnUse" x1="3186.0828" y1="-3103.554" x2="2469.7317" y2="-1756.3845" gradientTransform="matrix(0.8458 0.1599 0.0028 0.9719 -1890.5052 2238.1941)">
		<stop  offset="0" style="stop-color:#FAC226"/>
		<stop  offset="1" style="stop-color:#FBD671"/>
	</linearGradient>
	<path style="fill:url(#SVGID_00000132056189851018251920000012893326053659575712_);" d="M123.562,1011.228
		c9.715,16.045,19.802,31.747,30.294,47.039C143.363,1042.976,133.277,1027.272,123.562,1011.228z"/>
	
		<linearGradient id="SVGID_00000173845438298984535790000016144020632473303452_" gradientUnits="userSpaceOnUse" x1="1040.7075" y1="641.1014" x2="-248.5592" y2="1358.6067">
		<stop  offset="0" style="stop-color:#FFC014"/>
		<stop  offset="1" style="stop-color:#FBCD4F"/>
	</linearGradient>
	<path style="fill:url(#SVGID_00000173845438298984535790000016144020632473303452_);" d="M191.676,1109.219
		c1.628,2.023,3.266,4.036,4.913,6.039C194.943,1113.255,193.305,1111.242,191.676,1109.219z"/>
	
		<linearGradient id="SVGID_00000129887567417310272440000006525173143137320867_" gradientUnits="userSpaceOnUse" x1="3265.5215" y1="-3061.1543" x2="2549.2302" y2="-1714.0972" gradientTransform="matrix(0.8458 0.1599 0.0028 0.9719 -1890.5052 2238.1941)">
		<stop  offset="0" style="stop-color:#FAC226"/>
		<stop  offset="1" style="stop-color:#FBD671"/>
	</linearGradient>
	<path style="fill:url(#SVGID_00000129887567417310272440000006525173143137320867_);" d="M191.676,1109.219
		c1.628,2.023,3.266,4.036,4.913,6.039C194.943,1113.255,193.305,1111.242,191.676,1109.219z"/>
	
		<linearGradient id="SVGID_00000035514572800512470760000011505771024312298142_" gradientUnits="userSpaceOnUse" x1="1023.5372" y1="610.3344" x2="-265.6739" y2="1327.8087">
		<stop  offset="0" style="stop-color:#FFC014"/>
		<stop  offset="1" style="stop-color:#FBCD4F"/>
	</linearGradient>
	<path style="fill:url(#SVGID_00000035514572800512470760000011505771024312298142_);" d="M153.989,1058.46
		c11.988,17.462,24.507,34.384,37.61,50.663C178.496,1092.845,165.977,1075.922,153.989,1058.46z"/>
	
		<linearGradient id="SVGID_00000013159145172471275990000017129687372124983977_" gradientUnits="userSpaceOnUse" x1="3235.5522" y1="-3077.2168" x2="2519.2129" y2="-1730.0695" gradientTransform="matrix(0.8458 0.1599 0.0028 0.9719 -1890.5052 2238.1941)">
		<stop  offset="0" style="stop-color:#FAC226"/>
		<stop  offset="1" style="stop-color:#FBD671"/>
	</linearGradient>
	<path style="fill:url(#SVGID_00000013159145172471275990000017129687372124983977_);" d="M153.989,1058.46
		c11.988,17.462,24.507,34.384,37.61,50.663C178.496,1092.845,165.977,1075.922,153.989,1058.46z"/>
	
		<linearGradient id="SVGID_00000019667514615974611950000004769889387803484328_" gradientUnits="userSpaceOnUse" x1="857.5061" y1="311.6599" x2="-431.9238" y2="1029.256">
		<stop  offset="0" style="stop-color:#FFC014"/>
		<stop  offset="1" style="stop-color:#FBCD4F"/>
	</linearGradient>
	<path style="fill:url(#SVGID_00000019667514615974611950000004769889387803484328_);" d="M11.672,780.403
		c0.434,1.08,0.866,2.16,1.301,3.241C12.538,782.563,12.106,781.483,11.672,780.403z"/>
	
		<linearGradient id="SVGID_00000003801581465660585790000016506252958191219377_" gradientUnits="userSpaceOnUse" x1="2972.5994" y1="-3217.2004" x2="2256.1975" y2="-1869.9351" gradientTransform="matrix(0.8458 0.1599 0.0028 0.9719 -1890.5052 2238.1941)">
		<stop  offset="0" style="stop-color:#FAC226"/>
		<stop  offset="1" style="stop-color:#FBD671"/>
	</linearGradient>
	<path style="fill:url(#SVGID_00000003801581465660585790000016506252958191219377_);" d="M11.672,780.403
		c0.434,1.08,0.866,2.16,1.301,3.241C12.538,782.563,12.106,781.483,11.672,780.403z"/>
	
		<linearGradient id="SVGID_00000047739070646631218820000013973605574609166488_" gradientUnits="userSpaceOnUse" x1="867.6045" y1="330.0062" x2="-421.695" y2="1047.5298">
		<stop  offset="0" style="stop-color:#FFC014"/>
		<stop  offset="1" style="stop-color:#FBCD4F"/>
	</linearGradient>
	<path style="fill:url(#SVGID_00000047739070646631218820000013973605574609166488_);" d="M19.414,799.453
		c0.578,1.404,1.159,2.807,1.739,4.211C20.573,802.261,19.992,800.857,19.414,799.453z"/>
	
		<linearGradient id="SVGID_00000158749613790331014960000012294744790784685958_" gradientUnits="userSpaceOnUse" x1="2987.5605" y1="-3209.188" x2="2271.1824" y2="-1861.9674" gradientTransform="matrix(0.8458 0.1599 0.0028 0.9719 -1890.5052 2238.1941)">
		<stop  offset="0" style="stop-color:#FAC226"/>
		<stop  offset="1" style="stop-color:#FBD671"/>
	</linearGradient>
	<path style="fill:url(#SVGID_00000158749613790331014960000012294744790784685958_);" d="M19.414,799.453
		c0.578,1.404,1.159,2.807,1.739,4.211C20.573,802.261,19.992,800.857,19.414,799.453z"/>
	
		<linearGradient id="SVGID_00000060000565779144474200000009449677383646500749_" gradientUnits="userSpaceOnUse" x1="863.2443" y1="322.3328" x2="-425.9509" y2="1039.7982">
		<stop  offset="0" style="stop-color:#FFC014"/>
		<stop  offset="1" style="stop-color:#FBCD4F"/>
	</linearGradient>
	<path style="fill:url(#SVGID_00000060000565779144474200000009449677383646500749_);" d="M16.116,791.396
		c0.527,1.294,1.059,2.587,1.588,3.881C17.174,793.983,16.643,792.69,16.116,791.396z"/>
	
		<linearGradient id="SVGID_00000031186570908869096550000013084277741883309494_" gradientUnits="userSpaceOnUse" x1="2981.229" y1="-3212.5425" x2="2264.8557" y2="-1865.3312" gradientTransform="matrix(0.8458 0.1599 0.0028 0.9719 -1890.5052 2238.1941)">
		<stop  offset="0" style="stop-color:#FAC226"/>
		<stop  offset="1" style="stop-color:#FBD671"/>
	</linearGradient>
	<path style="fill:url(#SVGID_00000031186570908869096550000013084277741883309494_);" d="M16.116,791.396
		c0.527,1.294,1.059,2.587,1.588,3.881C17.174,793.983,16.643,792.69,16.116,791.396z"/>
	
		<linearGradient id="SVGID_00000183931531543930969940000001501914867317396655_" gradientUnits="userSpaceOnUse" x1="875.9146" y1="345.326" x2="-413.1347" y2="1062.7102">
		<stop  offset="0" style="stop-color:#FFC014"/>
		<stop  offset="1" style="stop-color:#FBCD4F"/>
	</linearGradient>
	<path style="fill:url(#SVGID_00000183931531543930969940000001501914867317396655_);" d="M26.09,815.514
		c0.625,1.49,1.253,2.979,1.882,4.467C27.343,818.493,26.716,817.004,26.09,815.514z"/>
	
		<linearGradient id="SVGID_00000106128940555464388760000015926174079830769548_" gradientUnits="userSpaceOnUse" x1="3000.0818" y1="-3202.4753" x2="2283.7258" y2="-1855.2964" gradientTransform="matrix(0.8458 0.1599 0.0028 0.9719 -1890.5052 2238.1941)">
		<stop  offset="0" style="stop-color:#FAC226"/>
		<stop  offset="1" style="stop-color:#FBD671"/>
	</linearGradient>
	<path style="fill:url(#SVGID_00000106128940555464388760000015926174079830769548_);" d="M26.09,815.514
		c0.625,1.49,1.253,2.979,1.882,4.467C27.343,818.493,26.716,817.004,26.09,815.514z"/>
	
		<linearGradient id="SVGID_00000114752624378272851250000006074817116991660425_" gradientUnits="userSpaceOnUse" x1="871.8748" y1="337.6073" x2="-417.4712" y2="1055.1567">
		<stop  offset="0" style="stop-color:#FFC014"/>
		<stop  offset="1" style="stop-color:#FBCD4F"/>
	</linearGradient>
	<path style="fill:url(#SVGID_00000114752624378272851250000006074817116991660425_);" d="M22.74,807.496
		c0.601,1.447,1.205,2.893,1.81,4.34C23.945,810.389,23.341,808.943,22.74,807.496z"/>
	
		<linearGradient id="SVGID_00000096056716404534765840000007861440396245069741_" gradientUnits="userSpaceOnUse" x1="2993.8362" y1="-3205.873" x2="2277.4487" y2="-1858.635" gradientTransform="matrix(0.8458 0.1599 0.0028 0.9719 -1890.5052 2238.1941)">
		<stop  offset="0" style="stop-color:#FAC226"/>
		<stop  offset="1" style="stop-color:#FBD671"/>
	</linearGradient>
	<path style="fill:url(#SVGID_00000096056716404534765840000007861440396245069741_);" d="M22.74,807.496
		c0.601,1.447,1.205,2.893,1.81,4.34C23.945,810.389,23.341,808.943,22.74,807.496z"/>
	
		<linearGradient id="SVGID_00000057135178046673762080000002151111865751403944_" gradientUnits="userSpaceOnUse" x1="844.5618" y1="288.6704" x2="-444.6932" y2="1006.1693">
		<stop  offset="0" style="stop-color:#FFC014"/>
		<stop  offset="1" style="stop-color:#FBCD4F"/>
	</linearGradient>
	<path style="fill:url(#SVGID_00000057135178046673762080000002151111865751403944_);" d="M1.794,755.487
		c0.471,1.205,0.943,2.41,1.416,3.615C2.737,757.898,2.265,756.692,1.794,755.487z"/>
	
		<linearGradient id="SVGID_00000080188606794937758040000003564585852356832681_" gradientUnits="userSpaceOnUse" x1="2953.8313" y1="-3227.1387" x2="2237.4465" y2="-1879.9059" gradientTransform="matrix(0.8458 0.1599 0.0028 0.9719 -1890.5052 2238.1941)">
		<stop  offset="0" style="stop-color:#FAC226"/>
		<stop  offset="1" style="stop-color:#FBD671"/>
	</linearGradient>
	<path style="fill:url(#SVGID_00000080188606794937758040000003564585852356832681_);" d="M1.794,755.487
		c0.471,1.205,0.943,2.41,1.416,3.615C2.737,757.898,2.265,756.692,1.794,755.487z"/>
	
		<linearGradient id="SVGID_00000124840750528134694390000002362563721036527495_" gradientUnits="userSpaceOnUse" x1="853.0452" y1="303.947" x2="-436.1884" y2="1021.4338">
		<stop  offset="0" style="stop-color:#FFC014"/>
		<stop  offset="1" style="stop-color:#FBCD4F"/>
	</linearGradient>
	<path style="fill:url(#SVGID_00000124840750528134694390000002362563721036527495_);" d="M8.271,771.901
		c0.474,1.19,0.946,2.381,1.422,3.571C9.217,774.282,8.745,773.091,8.271,771.901z"/>
	
		<linearGradient id="SVGID_00000163055757386164698540000009265664047352939159_" gradientUnits="userSpaceOnUse" x1="2966.2383" y1="-3220.5479" x2="2249.8511" y2="-1873.3098" gradientTransform="matrix(0.8458 0.1599 0.0028 0.9719 -1890.5052 2238.1941)">
		<stop  offset="0" style="stop-color:#FAC226"/>
		<stop  offset="1" style="stop-color:#FBD671"/>
	</linearGradient>
	<path style="fill:url(#SVGID_00000163055757386164698540000009265664047352939159_);" d="M8.271,771.901
		c0.474,1.19,0.946,2.381,1.422,3.571C9.217,774.282,8.745,773.091,8.271,771.901z"/>
	
		<linearGradient id="SVGID_00000081617477636275657810000002670267590486054569_" gradientUnits="userSpaceOnUse" x1="848.7944" y1="296.276" x2="-440.4605" y2="1013.7747">
		<stop  offset="0" style="stop-color:#FFC014"/>
		<stop  offset="1" style="stop-color:#FBCD4F"/>
	</linearGradient>
	<path style="fill:url(#SVGID_00000081617477636275657810000002670267590486054569_);" d="M4.993,763.63
		c0.482,1.224,0.965,2.448,1.45,3.672C5.959,766.078,5.476,764.854,4.993,763.63z"/>
	
		<linearGradient id="SVGID_00000158709113237415563950000017813435207410345391_" gradientUnits="userSpaceOnUse" x1="2960.0051" y1="-3223.8606" x2="2243.6184" y2="-1876.624" gradientTransform="matrix(0.8458 0.1599 0.0028 0.9719 -1890.5052 2238.1941)">
		<stop  offset="0" style="stop-color:#FAC226"/>
		<stop  offset="1" style="stop-color:#FBD671"/>
	</linearGradient>
	<path style="fill:url(#SVGID_00000158709113237415563950000017813435207410345391_);" d="M4.993,763.63
		c0.482,1.224,0.965,2.448,1.45,3.672C5.959,766.078,5.476,764.854,4.993,763.63z"/>
	
		<linearGradient id="SVGID_00000116957060563551433200000007436503726681619379_" gradientUnits="userSpaceOnUse" x1="899.4651" y1="387.3402" x2="-389.7797" y2="1104.8333">
		<stop  offset="0" style="stop-color:#FFC014"/>
		<stop  offset="1" style="stop-color:#FBCD4F"/>
	</linearGradient>
	<path style="fill:url(#SVGID_00000116957060563551433200000007436503726681619379_);" d="M45.065,859.314
		c0.84,1.878,1.687,3.753,2.533,5.628C46.752,863.067,45.905,861.192,45.065,859.314z"/>
	
		<linearGradient id="SVGID_00000150800510776026721720000000489931778975279754_" gradientUnits="userSpaceOnUse" x1="3035.1655" y1="-3183.8701" x2="2318.7891" y2="-1836.6526" gradientTransform="matrix(0.8458 0.1599 0.0028 0.9719 -1890.5052 2238.1941)">
		<stop  offset="0" style="stop-color:#FAC226"/>
		<stop  offset="1" style="stop-color:#FBD671"/>
	</linearGradient>
	<path style="fill:url(#SVGID_00000150800510776026721720000000489931778975279754_);" d="M45.065,859.314
		c0.84,1.878,1.687,3.753,2.533,5.628C46.752,863.067,45.905,861.192,45.065,859.314z"/>
	
		<linearGradient id="SVGID_00000152258523321830534910000002669563377469609406_" gradientUnits="userSpaceOnUse" x1="907.7092" y1="402.3044" x2="-381.4389" y2="1119.7437">
		<stop  offset="0" style="stop-color:#FFC014"/>
		<stop  offset="1" style="stop-color:#FBCD4F"/>
	</linearGradient>
	<path style="fill:url(#SVGID_00000152258523321830534910000002669563377469609406_);" d="M52.192,875.034
		c0.825,1.797,1.654,3.593,2.484,5.387C53.845,878.627,53.017,876.831,52.192,875.034z"/>
	
		<linearGradient id="SVGID_00000151545711234228813180000004022696338824030382_" gradientUnits="userSpaceOnUse" x1="3047.7476" y1="-3177.1548" x2="2331.3811" y2="-1829.9559" gradientTransform="matrix(0.8458 0.1599 0.0028 0.9719 -1890.5052 2238.1941)">
		<stop  offset="0" style="stop-color:#FAC226"/>
		<stop  offset="1" style="stop-color:#FBD671"/>
	</linearGradient>
	<path style="fill:url(#SVGID_00000151545711234228813180000004022696338824030382_);" d="M52.192,875.034
		c0.825,1.797,1.654,3.593,2.484,5.387C53.845,878.627,53.017,876.831,52.192,875.034z"/>
	
		<linearGradient id="SVGID_00000086686484040376867800000015958839463020757893_" gradientUnits="userSpaceOnUse" x1="911.9038" y1="409.7995" x2="-377.2713" y2="1127.2538">
		<stop  offset="0" style="stop-color:#FFC014"/>
		<stop  offset="1" style="stop-color:#FBCD4F"/>
	</linearGradient>
	<path style="fill:url(#SVGID_00000086686484040376867800000015958839463020757893_);" d="M55.776,882.79
		c0.853,1.835,1.708,3.668,2.568,5.499C57.484,886.458,56.629,884.624,55.776,882.79z"/>
	
		<linearGradient id="SVGID_00000101068381803825822790000017863330414943241102_" gradientUnits="userSpaceOnUse" x1="3054.1165" y1="-3173.7798" x2="2337.7451" y2="-1826.5721" gradientTransform="matrix(0.8458 0.1599 0.0028 0.9719 -1890.5052 2238.1941)">
		<stop  offset="0" style="stop-color:#FAC226"/>
		<stop  offset="1" style="stop-color:#FBD671"/>
	</linearGradient>
	<path style="fill:url(#SVGID_00000101068381803825822790000017863330414943241102_);" d="M55.776,882.79
		c0.853,1.835,1.708,3.668,2.568,5.499C57.484,886.458,56.629,884.624,55.776,882.79z"/>
	
		<linearGradient id="SVGID_00000078739196873890666490000005556450118190884013_" gradientUnits="userSpaceOnUse" x1="903.555" y1="394.7985" x2="-385.6196" y2="1112.2526">
		<stop  offset="0" style="stop-color:#FFC014"/>
		<stop  offset="1" style="stop-color:#FBCD4F"/>
	</linearGradient>
	<path style="fill:url(#SVGID_00000078739196873890666490000005556450118190884013_);" d="M48.615,867.195
		c0.819,1.808,1.644,3.614,2.469,5.419C50.259,870.809,49.435,869.003,48.615,867.195z"/>
	
		<linearGradient id="SVGID_00000158750420730790292520000012779918775825499529_" gradientUnits="userSpaceOnUse" x1="3041.4233" y1="-3180.5408" x2="2325.0476" y2="-1833.3246" gradientTransform="matrix(0.8458 0.1599 0.0028 0.9719 -1890.5052 2238.1941)">
		<stop  offset="0" style="stop-color:#FAC226"/>
		<stop  offset="1" style="stop-color:#FBD671"/>
	</linearGradient>
	<path style="fill:url(#SVGID_00000158750420730790292520000012779918775825499529_);" d="M48.615,867.195
		c0.819,1.808,1.644,3.614,2.469,5.419C50.259,870.809,49.435,869.003,48.615,867.195z"/>
	
		<linearGradient id="SVGID_00000173163085408265005740000009732772623993255815_" gradientUnits="userSpaceOnUse" x1="892.1808" y1="374.3261" x2="-397.0157" y2="1091.7924">
		<stop  offset="0" style="stop-color:#FFC014"/>
		<stop  offset="1" style="stop-color:#FBCD4F"/>
	</linearGradient>
	<path style="fill:url(#SVGID_00000173163085408265005740000009732772623993255815_);" d="M36.049,838.845
		c2.78,6.406,5.592,12.799,8.44,19.176C41.641,851.645,38.829,845.252,36.049,838.845z"/>
	
		<linearGradient id="SVGID_00000100385088599195468240000004044634242626024070_" gradientUnits="userSpaceOnUse" x1="3024.2527" y1="-3189.6641" x2="2307.8799" y2="-1842.4534" gradientTransform="matrix(0.8458 0.1599 0.0028 0.9719 -1890.5052 2238.1941)">
		<stop  offset="0" style="stop-color:#FAC226"/>
		<stop  offset="1" style="stop-color:#FBD671"/>
	</linearGradient>
	<path style="fill:url(#SVGID_00000100385088599195468240000004044634242626024070_);" d="M36.049,838.845
		c2.78,6.406,5.592,12.799,8.44,19.176C41.641,851.645,38.829,845.252,36.049,838.845z"/>
	
		<linearGradient id="SVGID_00000176755003989158500590000001896341002091347850_" gradientUnits="userSpaceOnUse" x1="884.3604" y1="360.4222" x2="-404.7406" y2="1077.8352">
		<stop  offset="0" style="stop-color:#FFC014"/>
		<stop  offset="1" style="stop-color:#FBCD4F"/>
	</linearGradient>
	<path style="fill:url(#SVGID_00000176755003989158500590000001896341002091347850_);" d="M32.807,831.331
		c0.692,1.614,1.385,3.227,2.082,4.84C34.192,834.559,33.499,832.945,32.807,831.331z"/>
	
		<linearGradient id="SVGID_00000060728021683300319220000010223594184847020980_" gradientUnits="userSpaceOnUse" x1="3012.6125" y1="-3195.8308" x2="2296.2478" y2="-1848.636" gradientTransform="matrix(0.8458 0.1599 0.0028 0.9719 -1890.5052 2238.1941)">
		<stop  offset="0" style="stop-color:#FAC226"/>
		<stop  offset="1" style="stop-color:#FBD671"/>
	</linearGradient>
	<path style="fill:url(#SVGID_00000060728021683300319220000010223594184847020980_);" d="M32.807,831.331
		c0.692,1.614,1.385,3.227,2.082,4.84C34.192,834.559,33.499,832.945,32.807,831.331z"/>
	
		<linearGradient id="SVGID_00000013192095756151733740000006237252168718450085_" gradientUnits="userSpaceOnUse" x1="916.259" y1="417.0978" x2="-373.2539" y2="1134.7401">
		<stop  offset="0" style="stop-color:#FFC014"/>
		<stop  offset="1" style="stop-color:#FBCD4F"/>
	</linearGradient>
	<path style="fill:url(#SVGID_00000013192095756151733740000006237252168718450085_);" d="M59.31,890.341
		c0.913,1.938,1.827,3.874,2.747,5.807C61.137,894.215,60.223,892.279,59.31,890.341z"/>
	
		<linearGradient id="SVGID_00000053545700677203857870000012211558726617444752_" gradientUnits="userSpaceOnUse" x1="3060.4602" y1="-3170.4705" x2="2344.0637" y2="-1823.2153" gradientTransform="matrix(0.8458 0.1599 0.0028 0.9719 -1890.5052 2238.1941)">
		<stop  offset="0" style="stop-color:#FAC226"/>
		<stop  offset="1" style="stop-color:#FBD671"/>
	</linearGradient>
	<path style="fill:url(#SVGID_00000053545700677203857870000012211558726617444752_);" d="M59.31,890.341
		c0.913,1.938,1.827,3.874,2.747,5.807C61.137,894.215,60.223,892.279,59.31,890.341z"/>
	
		<linearGradient id="SVGID_00000013151913545363032870000009672801549880534195_" gradientUnits="userSpaceOnUse" x1="880.1767" y1="352.8786" x2="-408.9409" y2="1070.3009">
		<stop  offset="0" style="stop-color:#FFC014"/>
		<stop  offset="1" style="stop-color:#FBCD4F"/>
	</linearGradient>
	<path style="fill:url(#SVGID_00000013151913545363032870000009672801549880534195_);" d="M29.451,823.473
		c0.653,1.538,1.307,3.076,1.963,4.612C30.758,826.549,30.105,825.011,29.451,823.473z"/>
	
		<linearGradient id="SVGID_00000020363990087571438690000014556732462476805506_" gradientUnits="userSpaceOnUse" x1="3006.3542" y1="-3199.1489" x2="2289.9946" y2="-1851.963" gradientTransform="matrix(0.8458 0.1599 0.0028 0.9719 -1890.5052 2238.1941)">
		<stop  offset="0" style="stop-color:#FAC226"/>
		<stop  offset="1" style="stop-color:#FBD671"/>
	</linearGradient>
	<path style="fill:url(#SVGID_00000020363990087571438690000014556732462476805506_);" d="M29.451,823.473
		c0.653,1.538,1.307,3.076,1.963,4.612C30.758,826.549,30.105,825.011,29.451,823.473z"/>
</g>
</svg>
